<?xml version="1.0" encoding="UTF-8"?>
<!DOCTYPE svg PUBLIC "-//W3C//DTD SVG 1.1//EN" "http://www.w3.org/Graphics/SVG/1.1/DTD/svg11.dtd">
<!-- Creator: CorelDRAW 2020 (64 Bit) -->
<svg xmlns="http://www.w3.org/2000/svg" xml:space="preserve" width="100mm" height="23mm" version="1.1" style="shape-rendering:geometricPrecision; text-rendering:geometricPrecision; image-rendering:optimizeQuality; fill-rule:evenodd; clip-rule:evenodd"
viewBox="0 0 10000 2300"
 xmlns:xlink="http://www.w3.org/1999/xlink"
 xmlns:xodm="http://www.corel.com/coreldraw/odm/2003">
 <defs>
  <style type="text/css">
   <![CDATA[
    .fil0 {fill:#006276;fill-rule:nonzero}
    .fil4 {fill:url(#id0)}
    .fil3 {fill:url(#id1)}
    .fil5 {fill:url(#id2)}
    .fil1 {fill:url(#id3);fill-rule:nonzero}
    .fil2 {fill:url(#id4);fill-rule:nonzero}
   ]]>
  </style>
  <linearGradient id="id0" gradientUnits="userSpaceOnUse" x1="587.61" y1="399.85" x2="1667.56" y2="399.85">
   <stop offset="0" style="stop-opacity:1; stop-color:#F26F35"/>
   <stop offset="1" style="stop-opacity:1; stop-color:#FFD624"/>
  </linearGradient>
  <linearGradient id="id1" gradientUnits="userSpaceOnUse" x1="673.32" y1="1839.78" x2="973.29" y2="588.42">
   <stop offset="0" style="stop-opacity:1; stop-color:#00A2B1"/>
   <stop offset="1" style="stop-opacity:1; stop-color:#DDEBBD"/>
  </linearGradient>
  <linearGradient id="id2" gradientUnits="userSpaceOnUse" x1="1796.12" y1="511.28" x2="1093.3" y2="1736.92">
   <stop offset="0" style="stop-opacity:1; stop-color:#91D5DC"/>
   <stop offset="1" style="stop-opacity:1; stop-color:#00687B"/>
  </linearGradient>
  <linearGradient id="id3" gradientUnits="userSpaceOnUse" x1="364.76" y1="271.3" x2="827.59" y2="271.3">
   <stop offset="0" style="stop-opacity:1; stop-color:#83296E"/>
   <stop offset="1" style="stop-opacity:1; stop-color:#ED297D"/>
  </linearGradient>
  <linearGradient id="id4" gradientUnits="userSpaceOnUse" x1="527.61" y1="262.71" x2="-175.22" y2="1505.5">
   <stop offset="0" style="stop-opacity:1; stop-color:#91D5DC"/>
   <stop offset="0.341176" style="stop-opacity:1; stop-color:#2097A8"/>
   <stop offset="1" style="stop-opacity:1; stop-color:#00687B"/>
  </linearGradient>
 </defs>
 <g id="Layer_x0020_1">
  <metadata id="CorelCorpID_0Corel-Layer"/>
  <g id="_2267493009072">
   <path class="fil0" d="M2828.58 1441.15c54.93,-44.57 93.07,-109.1 107.14,-189.85l0.6 -3.34 56.92 0 -0.53 4.46c-9.34,79.7 -52.11,164.14 -126.07,224.65 -62.32,51.01 -146.83,85.04 -252.15,85.04 -119.74,0 -224.23,-38.84 -297.68,-110.91 -69.85,-68.56 -111.5,-167.04 -111.5,-290.81 0,-101.98 38.14,-212.73 118.97,-292.01 66.77,-65.58 162.68,-109.7 290.3,-109.7 94.63,0 177.76,22.89 241.71,68.06 61.2,43.37 104.74,107.14 123.67,190.95l1.11 4.88 -57.27 0 -0.77 -3.08c-16.88,-68.05 -55.19,-118.71 -105.69,-153.16 -56.49,-38.49 -128.31,-56.99 -202.8,-56.99 -104.31,0 -190.27,37.88 -251.04,98.48 -64.63,64.45 -101.06,154.71 -101.06,252.5 0,99.08 33.35,190.87 98.4,255.67 58.89,58.72 143.91,95.4 253.8,95.4 84.08,0 157.97,-24.68 214.11,-70.18l-0.17 -0.06zm413.4 103.79l-61.72 0c117.51,-256.53 235.09,-513.24 353.46,-769.42l60.59 0c117.34,256.61 235.45,512.98 353.46,769.42l-64.27 0 -111.93 -245.31 -415.01 0 -111.93 245.31 -2.58 0 -0.07 0zm506.62 -295.97l-184.61 -404.29 -184.62 404.29 369.23 0zm466.69 244.63c-61.87,-48.07 -88.54,-118.88 -88.54,-204.32l0 -4.03 57.09 0 0 4.03c0.52,69.68 21.94,125.14 68.23,163.11 46.55,38.13 118.54,58.96 219.93,58.96 85.03,0 145.1,-16.7 185.14,-43.36 46.37,-30.85 65.73,-75.17 65.73,-122.22 0,-41.4 -9.77,-71.32 -38.74,-94.8 -29.57,-23.92 -79.2,-41.57 -158.47,-57.94l-141.85 -29.83c-83.84,-17.75 -142.03,-39.08 -179.31,-70.63 -37.81,-31.88 -54.16,-73.89 -54.16,-132.76 0,-60.17 26.99,-111.93 79.54,-147.94 48.95,-33.5 120.17,-53.31 212.39,-53.31 99.68,0 180.76,18.94 236.73,59.75 52.96,38.56 83.48,96.68 86.13,176.55l0.18 4.11 -56.92 0 -0.25 -3.78c-3.18,-42.86 -16.7,-89.39 -53.91,-125.05 -37.36,-35.83 -98.91,-60.94 -197.91,-60.94 -85.28,0 -143.83,14.48 -181.96,38.56 -43.37,27.42 -60.35,67.54 -60.35,113.06 0,39.33 8.49,68.83 34.38,91.79 26.32,23.31 70.79,40.37 142.62,54.59l156.78 30.95c76.79,15 136.28,34.97 176.73,66.6 40.88,31.97 62.22,75.69 62.22,137.82 0,58.72 -21.61,120.24 -82.63,163.18 -48.25,33.96 -121.11,56.22 -227.39,56.22 -119.91,0 -204.84,-24.76 -260.91,-68.4l-0.52 0.03zm811.68 51.34l-61.72 0c117.59,-256.61 236.05,-512.71 353.46,-769.42l60.6 0c118.29,256.18 235.87,512.81 353.46,769.42l-64.28 0 -111.93 -245.31 -415 0 -111.93 245.31 -2.58 0 -0.08 0zm506.63 -295.97l-184.62 -404.29 -184.61 404.29 369.23 0zm874.78 295.97l-53.06 0 0 -769.42 57.09 0 0 769.42 -4.03 0zm522.15 -718.69l-307.11 0 0 -50.65 671.28 0 0 50.65 -307.1 0 0 718.69 -57.09 0 0 -718.69 0.02 0zm484.34 718.69l-61.72 0c117.94,-256.36 236.05,-512.81 353.46,-769.42l60.6 0c118.28,256.18 235.87,512.81 353.46,769.42l-64.28 0 -111.93 -245.31 -415.01 0 -111.93 245.31 -2.57 0 -0.08 0zm506.65 -295.97l-184.62 -404.29 -184.62 404.29 369.24 0zm465.31 295.97l-53.06 0 0 -769.42 57.09 0 0 339.06 575.21 0 0 -339.06 57.09 0 0 769.42 -57.09 0 0 -379.62 -575.21 0 0 379.62 -4.03 0zm1195.06 -4.03l0 -318.51 -357.24 -446.9 78.5 0 307.27 393.15 313.62 -393.15 72.16 0 -357.24 446.9 0 322.54 -57.09 0 0 -4.03 0.02 0z"/>
   <path class="fil0" d="M2804.94 2259.84m29.12 -4.53c0,1.03 -0.35,1.7 -0.68,2.4 -0.35,0.68 -1.02,1.38 -2.4,1.71 -1.03,0.35 -2.4,0.68 -4.53,1.02 -1.71,0.35 -4.11,0.35 -6.94,0.35 -2.75,0 -4.89,0 -6.94,-0.35 -1.7,-0.34 -3.43,-0.67 -4.46,-1.02 -1.02,-0.35 -2.05,-1.03 -2.4,-1.71 -0.35,-0.68 -0.68,-1.37 -0.68,-2.4l0 -210.16c0,-1.03 0.35,-1.7 0.68,-2.4 0.68,-0.68 1.38,-1.38 2.83,-1.71 1.03,-0.35 2.4,-0.68 4.46,-1.02 1.7,-0.35 4.2,-0.35 6.61,-0.35 2.82,0 5.23,0 6.93,0.35 2.06,0.34 3.43,0.67 4.54,1.02 1.37,0.35 2.05,1.03 2.4,1.71 0.35,0.68 0.68,1.37 0.68,2.4l0 210.16 -0.1 0z"/>
   <path class="fil0" d="M3081.52 2259.84m238.28 -4.53c0,1.03 -0.35,1.7 -0.68,2.4 -0.35,0.68 -1.38,1.38 -2.4,1.71 -1.03,0.35 -2.75,0.68 -4.54,1.02 -1.7,0.35 -4.2,0.35 -6.93,0.35 -2.76,0 -5.24,0 -6.94,-0.35 -2.06,-0.34 -3.43,-0.67 -4.54,-1.02 -1.02,-0.35 -2.05,-1.03 -2.4,-1.71 -0.35,-0.68 -0.68,-1.37 -0.68,-2.4l0 -190.8 -0.35 0 -76.97 191.83c-0.35,0.67 -1.02,1.37 -1.37,2.05 -0.68,0.35 -1.71,1.03 -2.75,1.38 -1.38,0.34 -2.76,0.67 -4.54,0.67 -1.37,0.35 -3.43,0.35 -5.56,0.35 -2.4,0 -4.54,0 -6.26,-0.35 -1.71,-0.34 -3.08,-0.34 -4.11,-1.02 -1.03,-0.35 -2.05,-0.68 -2.83,-1.38 -0.35,-0.68 -1.02,-1.03 -1.02,-1.7l-73.89 -191.83 -0.35 0 0 190.8c0,1.03 -0.35,1.7 -0.68,2.4 -0.35,0.68 -1.38,1.38 -2.4,1.71 -1.03,0.35 -2.76,0.68 -4.54,1.02 -1.7,0.35 -4.11,0.35 -7.28,0.35 -2.76,0 -4.89,0 -6.94,-0.35 -1.71,-0.34 -3.08,-0.67 -4.46,-1.02 -1.03,-0.35 -1.7,-1.03 -2.05,-1.71 -0.35,-0.68 -0.68,-1.37 -0.68,-2.4l0 -201.5c0,-4.88 1.37,-7.96 3.78,-10.02 2.4,-2.05 5.23,-3.08 8.31,-3.08l18 0c3.43,0 6.94,0.35 9.69,1.03 2.75,0.68 4.89,1.71 6.94,3.08 2.05,1.38 3.86,3.43 5.23,5.56 1.38,2.41 2.75,4.89 3.78,7.97l62.83 158.82 0.67 0 65.23 -158.13c1.03,-3.42 2.4,-6.25 4.21,-8.66 1.37,-2.4 3.08,-4.45 4.88,-5.91 1.7,-1.37 3.86,-2.4 5.91,-2.75 2.05,-0.68 4.88,-1.03 7.63,-1.03l18.69 0c1.7,0 3.43,0.35 4.88,0.68 1.37,0.68 2.75,1.38 3.86,2.4 1.37,1.03 2.05,2.41 2.75,4.21 0.68,1.38 1.02,3.43 1.02,5.91l0 201.5 -0.15 -0.08z"/>
   <path class="fil0" d="M3554.8 2259.84m196.03 -112.02c0,17.65 -2.05,33.68 -6.26,47.9 -4.11,14.22 -10.37,26.32 -18.68,36.08 -8.31,10.02 -18.78,17.66 -31.2,23.24 -12.52,5.23 -27.09,7.96 -44.04,7.96 -16.28,0 -30.53,-2.4 -42.7,-7.28 -12.16,-4.89 -21.85,-12.17 -29.82,-21.51 -7.63,-9.34 -13.54,-21.17 -17.3,-35.06 -3.78,-13.89 -5.91,-29.82 -5.91,-47.9 0,-16.98 2.05,-32.91 6.26,-46.8 4.2,-14.23 10.36,-26.39 18.77,-36.08 8.32,-9.69 19.03,-17.31 31.55,-22.89 12.52,-5.23 27.09,-7.96 43.72,-7.96 16.28,0 30.17,2.4 42.34,7.28 11.82,4.89 21.86,11.82 29.82,21.16 7.97,9.34 13.9,20.83 17.66,34.71 3.85,13.55 5.91,29.49 5.91,47.15l-0.12 0zm-30.85 1.72c0,-12.17 -1.03,-23.91 -3.18,-34.38 -2.4,-10.71 -5.91,-20.13 -11.06,-27.76 -5.23,-7.97 -12.17,-13.9 -20.48,-18.43 -8.67,-4.54 -19.46,-6.61 -31.88,-6.61 -12.52,0 -23.24,2.4 -31.88,6.94 -8.31,4.88 -15.25,11.14 -20.83,19.03 -5.23,7.96 -8.99,17.05 -11.49,27.76 -2.41,10.37 -3.43,21.51 -3.43,33.01 0,13.19 1.02,24.94 3.08,35.73 2.4,10.72 5.91,20.13 11.14,28.12 4.88,7.63 11.82,13.89 20.14,18 8.66,4.53 19.45,6.61 32.22,6.61 12.52,0 23.24,-2.4 31.88,-7.29 8.66,-4.53 15.6,-11.14 21.16,-19.1 5.23,-7.97 8.99,-17.31 11.14,-28.12 2.41,-10.37 3.43,-21.51 3.43,-33.61l0.04 0.1zm-49.3 -169.29c1.03,-1.7 2.41,-2.83 3.43,-3.43 1.03,-1.02 2.41,-1.37 4.21,-2.05 1.37,-0.35 3.08,-0.68 5.23,-0.68 2.05,-0.35 4.53,-0.35 7.29,-0.35 3.43,0 5.91,0.35 7.96,0.68 1.71,0.68 3.08,1.03 4.11,2.05 0.68,0.68 1.03,1.71 0.68,2.76 -0.35,1.02 -1.03,2.05 -2.06,3.08l-38.48 36.08c-1.03,1.03 -2.06,2.05 -3.08,2.4 -1.03,0.68 -2.06,1.38 -3.43,1.71 -1.03,0.35 -2.41,0.68 -4.21,0.68 -1.7,0.34 -3.86,0.34 -5.91,0.34 -2.75,0 -4.88,0 -6.26,-0.34 -1.37,-0.35 -2.4,-0.68 -3.18,-1.38 -0.35,-0.68 -0.67,-1.38 -0.35,-2.4 0,-0.68 0.68,-2.06 1.71,-3.08l32.23 -36.09 0.11 0.02z"/>
   <path class="fil0" d="M3958.26 2259.84m112 -5.21c-0.34,1.38 -1.02,2.4 -1.7,3.08 -0.68,0.68 -1.71,1.38 -3.43,1.71 -1.38,0.68 -3.18,1.02 -5.23,1.02 -2.41,0.35 -5.24,0.35 -8.32,0.35 -2.75,0 -4.88,0 -6.6,0 -2.06,0 -3.43,-0.35 -4.89,-0.35 -1.37,-0.34 -2.4,-0.67 -3.43,-1.02 -1.03,-0.35 -1.7,-0.68 -2.4,-1.03 -0.68,-0.35 -1.38,-1.03 -1.71,-1.71 -0.35,-0.34 -0.67,-1.37 -1.02,-2.05l-71.82 -203.65c-0.68,-2.75 -1.03,-4.45 -1.38,-6.26 0,-1.37 0.68,-2.4 1.38,-3.43 1.03,-0.67 2.75,-1.02 5.23,-1.37 2.06,-0.35 5.23,-0.35 8.99,-0.35 3.09,0 5.57,0 7.64,0.35 1.7,0 3.08,0.35 4.11,0.68 1.02,0.68 1.7,1.02 2.4,1.7 0.35,1.03 1.03,1.71 1.38,3.08l62.82 184.54 0.35 0 61.02 -184.19c0.35,-1.37 0.68,-2.4 1.38,-3.08 0.35,-1.03 1.03,-1.37 2.4,-2.05 1.03,-0.35 2.4,-0.68 4.54,-0.68 2.05,-0.35 4.88,-0.35 8.31,-0.35 3.43,0 6.26,0 8.31,0.35 1.71,0.35 3.08,0.68 4.21,1.7 0.68,0.68 1.02,1.71 0.68,3.43 0,1.38 -0.68,3.43 -1.71,5.91l-71.49 203.65 -0.02 0.02z"/>
   <path class="fil0" d="M4367.86 2259.84m122.06 -12.17c0,2.06 0,3.78 -0.35,5.57 -0.35,1.37 -0.68,2.75 -1.02,3.85 -0.68,1.03 -1.38,1.71 -2.06,2.06 -0.68,0.34 -1.37,0.67 -2.4,0.67l-105.42 0c-2.4,0 -4.88,-1.02 -7.29,-2.75 -2.4,-1.7 -3.43,-4.88 -3.43,-8.99l0 -195.58c0,-4.54 1.03,-7.29 3.43,-9.35 2.41,-1.7 4.89,-2.4 7.29,-2.4l104.06 0c1.03,0 1.71,0.35 2.83,0.68 0.68,0.35 1.03,1.03 1.71,2.05 0.35,1.03 0.67,2.41 1.02,3.86 0.35,1.71 0.35,3.43 0.35,5.91 0,2.05 0,3.86 -0.35,5.23 -0.35,1.38 -0.67,2.75 -1.02,3.86 -0.68,1.03 -1.03,1.7 -1.71,2.05 -1.03,0.35 -1.7,0.68 -2.83,0.68l-85.71 0 0 68.66 73.54 0c1.03,0 1.71,0.35 2.75,0.68 0.68,0.68 1.03,1.37 1.71,2.05 0.35,1.03 0.68,2.06 1.03,3.86 0.35,1.7 0.35,3.43 0.35,5.56 0,2.05 0,3.86 -0.35,5.23 -0.35,1.71 -0.68,2.83 -1.03,3.86 -0.68,0.68 -1.03,1.37 -1.71,1.7 -1.02,0.35 -1.7,0.68 -2.75,0.68l-73.54 0 0 78.43 87.09 0c1.02,0 1.7,0.34 2.4,0.67 0.68,0.35 1.38,1.03 2.05,2.06 0.35,1.02 0.68,2.05 1.03,3.85 0.35,1.38 0.35,3.43 0.35,5.57l-0.02 -0.26z"/>
   <path class="fil0" d="M4726.47 2259.84m29.15 -4.53c0,1.03 -0.35,1.7 -0.68,2.4 -0.35,0.68 -1.03,1.38 -2.4,1.71 -1.03,0.35 -2.41,0.68 -4.54,1.02 -1.7,0.35 -4.11,0.35 -6.94,0.35 -2.75,0 -4.88,0 -6.93,-0.35 -1.71,-0.34 -3.43,-0.67 -4.46,-1.02 -1.03,-0.35 -2.05,-1.03 -2.4,-1.71 -0.35,-0.68 -0.68,-1.37 -0.68,-2.4l0 -210.16c0,-1.03 0.35,-1.7 0.68,-2.4 0.68,-0.68 1.37,-1.38 2.83,-1.71 1.02,-0.35 2.4,-0.68 4.45,-1.02 1.71,-0.35 4.21,-0.35 6.61,-0.35 2.83,0 5.23,0 6.94,0.35 2.05,0.34 3.43,0.67 4.53,1.02 1.38,0.35 2.06,1.03 2.41,1.71 0.35,0.68 0.67,1.37 0.67,2.4l0 210.16 -0.09 0z"/>
   <path class="fil0" d="M4986.01 2259.84m134.91 -61.37c0,10.02 -1.71,19.03 -5.56,27.42 -3.86,7.97 -8.99,14.58 -15.95,20.14 -6.61,5.56 -14.57,10.02 -23.57,12.84 -8.99,2.76 -19.1,4.21 -29.49,4.21 -7.29,0 -14.22,-0.68 -20.48,-1.71 -6.26,-1.37 -11.82,-3.08 -16.63,-4.88 -4.88,-1.7 -8.99,-3.43 -12.52,-5.56 -3.08,-2.05 -5.56,-3.43 -6.93,-4.88 -1.38,-1.38 -2.06,-3.09 -2.76,-5.24 -0.67,-2.05 -1.02,-4.88 -1.02,-8.31 0,-2.4 0,-4.53 0.35,-6.26 0.34,-1.7 0.67,-2.75 1.02,-3.85 0.35,-1.03 1.03,-1.71 1.71,-2.06 0.68,-0.68 1.37,-0.68 2.4,-0.68 1.38,0 3.86,1.03 6.61,2.75 2.75,2.06 6.61,4.21 11.14,6.26 4.46,2.41 10.02,4.54 16.28,6.26 6.61,2.06 13.89,3.08 22.21,3.08 6.26,0 12.17,-1.02 17.3,-2.4 5.23,-1.7 9.69,-4.2 13.55,-7.29 3.85,-3.08 6.61,-6.93 8.66,-11.49 2.05,-4.45 3.08,-9.69 3.08,-15.25 0,-6.26 -1.38,-11.49 -4.11,-15.95 -2.83,-4.45 -6.61,-8.31 -11.14,-11.74 -4.88,-3.08 -10.02,-6.26 -15.95,-8.99 -5.91,-2.75 -12.17,-5.56 -18,-8.31 -6.26,-3.08 -12.52,-6.26 -18.43,-9.69 -5.91,-3.43 -11.14,-7.64 -15.6,-12.17 -4.46,-4.89 -8.31,-10.37 -11.06,-16.98 -3.18,-6.26 -4.54,-13.89 -4.54,-22.88 0,-9 1.71,-17.31 4.88,-24.27 3.43,-7.28 7.97,-13.19 13.9,-18 6.26,-4.88 13.2,-8.66 21.16,-11.14 8.31,-2.4 16.98,-3.86 26.74,-3.86 4.89,0 9.69,0.35 14.57,1.38 4.89,0.68 9.34,1.7 13.9,3.08 4.2,1.38 8.31,3.08 11.49,4.88 3.43,1.71 5.91,3.18 6.94,4.21 1.02,1.03 1.7,2.05 2.05,2.75 0.35,0.35 0.35,1.38 0.68,2.05 0.35,1.03 0.35,2.41 0.68,3.86 0,1.03 0,2.75 0,5.23 0,2.06 0,3.86 -0.35,5.24 0,1.7 -0.35,3.08 -0.68,4.2 -0.35,1.03 -0.68,1.71 -1.37,2.4 -0.68,0.35 -1.38,0.68 -2.06,0.68 -1.37,0 -3.08,-0.68 -5.91,-2.4 -2.75,-1.71 -5.91,-3.43 -9.69,-5.23 -3.85,-2.06 -8.31,-3.86 -13.54,-5.57 -5.24,-1.7 -11.15,-2.4 -17.66,-2.4 -6.26,0 -11.49,0.68 -15.95,2.4 -4.53,1.71 -8.31,3.86 -11.49,6.61 -2.75,2.75 -4.88,5.91 -6.61,9.34 -1.37,3.86 -2.05,7.97 -2.05,12.17 0,5.91 1.38,11.15 4.21,15.6 2.75,4.54 6.6,8.32 11.49,11.75 4.53,3.17 10.02,6.25 15.95,8.99 5.91,3.08 12.16,5.91 18.42,8.66 6.26,2.83 12.17,5.91 18.43,9.34 5.91,3.43 11.07,7.63 15.95,12.52 4.54,4.53 8.31,10.02 11.49,16.28 2.75,6.6 4.21,13.89 4.21,22.88l-0.35 -0.02z"/>
   <path class="fil0" d="M5508.41 2259.84m165.76 -12.17c0,2.06 -0.35,4.11 -1.03,5.57 -0.67,1.7 -1.7,3.08 -3.08,4.2 -1.02,1.03 -2.4,1.71 -4.2,2.05 -1.38,0.35 -2.75,0.68 -4.54,0.68l-9.69 0c-2.75,0 -5.56,-0.35 -7.96,-1.02 -2.05,-0.68 -4.21,-1.71 -6.26,-3.09 -2.05,-1.7 -4.11,-3.85 -6.26,-6.6 -2.05,-2.76 -4.2,-6.61 -6.61,-11.15l-66.93 -124.54c-3.43,-6.61 -6.94,-13.2 -10.37,-20.13 -3.85,-7.29 -6.93,-14.23 -10.02,-20.84l-0.34 0c0.34,8.32 0.34,16.63 0.67,24.94 0,8.32 0,16.98 0,25.29l0 132.16c0,1.03 -0.35,1.71 -0.67,2.41 -0.35,0.67 -1.38,1.37 -2.41,1.7 -1.02,0.35 -2.4,0.68 -4.53,1.03 -1.71,0.35 -4.11,0.35 -6.94,0.35 -2.75,0 -5.23,0 -7.29,-0.35 -1.7,-0.35 -3.08,-0.68 -4.1,-1.03 -1.03,-0.35 -1.71,-1.03 -2.41,-1.7 -0.35,-0.68 -0.68,-1.38 -0.68,-2.41l0 -202.19c0,-4.54 1.38,-7.64 3.78,-9.69 2.83,-1.71 5.57,-2.75 8.32,-2.75l14.57 0c3.08,0 6.26,0.35 8.31,0.68 2.41,0.67 4.54,1.7 6.26,2.75 1.71,1.37 3.43,3.08 5.23,5.56 1.71,2.4 3.43,5.23 5.24,8.66l51.68 96.43c3.08,5.91 6.26,11.49 8.99,16.97 3.08,5.57 5.91,11.15 8.66,16.63 2.75,5.23 5.23,10.72 7.97,15.95 2.83,5.23 5.23,10.37 7.96,15.95l0.35 0c-0.35,-8.99 -0.68,-18.35 -0.68,-28.12 0,-9.34 0,-18.78 0,-27.77l0 -118.61c0,-1.03 0.35,-1.71 0.68,-2.41 0.68,-0.68 1.38,-1.02 2.4,-1.7 1.03,-0.35 2.75,-0.68 4.54,-1.03 1.7,-0.35 4.2,-0.35 7.28,-0.35 2.41,0 4.89,0 6.61,0.35 2.06,0.35 3.43,0.68 4.54,1.03 1.02,0.68 2.05,1.02 2.4,1.7 0.35,0.68 0.68,1.38 0.68,2.41l0 201.84 -0.12 0.19z"/>
   <path class="fil0" d="M5909.02 2259.84m196.03 -112.02c0,17.65 -2.06,33.68 -6.26,47.9 -4.11,14.22 -10.37,26.32 -18.68,36.08 -8.32,10.02 -18.78,17.66 -31.2,23.24 -12.52,5.23 -27.09,7.96 -44.05,7.96 -16.28,0 -30.52,-2.4 -42.69,-7.28 -12.17,-4.89 -21.86,-12.17 -29.82,-21.51 -7.64,-9.34 -13.55,-21.17 -17.31,-35.06 -3.78,-13.89 -5.91,-29.82 -5.91,-47.9 0,-16.98 2.06,-32.91 6.26,-46.8 4.21,-14.23 10.37,-26.39 18.78,-36.08 8.31,-9.69 19.03,-17.31 31.55,-22.89 12.52,-5.23 27.09,-7.96 43.72,-7.96 16.27,0 30.17,2.4 42.34,7.28 11.82,4.89 21.86,11.82 29.82,21.16 7.96,9.34 13.89,20.83 17.65,34.71 3.86,13.55 5.91,29.49 5.91,47.15l-0.11 0zm-30.87 1.72c0,-12.17 -1.03,-23.91 -3.18,-34.38 -2.4,-10.71 -5.91,-20.13 -11.06,-27.76 -5.24,-7.97 -12.17,-13.9 -20.49,-18.43 -8.66,-4.54 -19.45,-6.61 -31.87,-6.61 -12.52,0 -23.24,2.4 -31.88,6.94 -8.32,4.88 -15.25,11.14 -20.83,19.03 -5.24,7.96 -9,17.05 -11.5,27.76 -2.4,10.37 -3.43,21.51 -3.43,33.01 0,13.19 1.03,24.94 3.09,35.73 2.4,10.72 5.91,20.13 11.14,28.12 4.88,7.63 11.82,13.89 20.13,18 8.66,4.53 19.46,6.61 32.23,6.61 12.52,0 23.23,-2.4 31.88,-7.29 8.66,-4.53 15.6,-11.14 21.16,-19.1 5.23,-7.97 8.99,-17.31 11.14,-28.12 2.4,-10.37 3.43,-21.51 3.43,-33.61l0.04 0.1z"/>
   <path class="fil0" d="M6497.17 2259.84m29.14 -4.53c0,1.03 -0.34,1.7 -0.67,2.4 -0.35,0.68 -1.03,1.38 -2.41,1.71 -1.02,0.35 -2.4,0.68 -4.53,1.02 -1.71,0.35 -4.11,0.35 -6.94,0.35 -2.75,0 -4.88,0 -6.94,-0.35 -1.7,-0.34 -3.43,-0.67 -4.45,-1.02 -1.03,-0.35 -2.06,-1.03 -2.41,-1.71 -0.35,-0.68 -0.67,-1.37 -0.67,-2.4l0 -210.16c0,-1.03 0.34,-1.7 0.67,-2.4 0.68,-0.68 1.38,-1.38 2.83,-1.71 1.03,-0.35 2.41,-0.68 4.46,-1.02 1.71,-0.35 4.2,-0.35 6.61,-0.35 2.83,0 5.23,0 6.94,0.35 2.05,0.34 3.43,0.67 4.53,1.02 1.38,0.35 2.05,1.03 2.4,1.71 0.35,0.68 0.68,1.37 0.68,2.4l0 210.16 -0.1 0z"/>
   <path class="fil0" d="M6747.44 2259.84m163.71 -206.72c0,2.05 0,3.85 -0.35,5.56 -0.35,1.37 -0.68,2.75 -1.03,3.85 -0.68,1.03 -1.02,1.71 -1.7,2.06 -1.03,0.35 -1.71,0.68 -2.41,0.68l-61.79 0 0 190.1c0,1.02 -0.35,1.7 -0.68,2.4 -0.35,0.68 -1.03,1.38 -2.4,1.71 -1.03,0.34 -2.41,0.67 -4.46,1.02 -1.71,0.35 -4.21,0.35 -6.94,0.35 -2.83,0 -4.88,0 -6.94,-0.35 -1.7,-0.35 -3.43,-0.68 -4.53,-1.02 -1.03,-0.35 -2.05,-1.03 -2.4,-1.71 -0.35,-0.68 -0.68,-1.38 -0.68,-2.4l0 -190.1 -61.37 0c-1.03,0 -1.71,-0.35 -2.41,-0.68 -1.02,-0.35 -1.37,-1.03 -2.05,-2.06 -0.35,-1.02 -0.68,-2.4 -1.03,-3.85 -0.35,-1.71 -0.35,-3.43 -0.35,-5.56 0,-2.06 0,-4.21 0.35,-5.57 0.35,-1.7 0.68,-3.08 1.03,-4.2 0.68,-1.03 1.03,-1.71 2.05,-2.06 0.68,-0.34 1.38,-0.67 2.41,-0.67l152.31 0c0.68,0 1.38,0.34 2.4,0.67 0.68,0.35 1.03,1.03 1.71,2.06 0.35,1.03 0.68,2.4 1.03,4.2 0.34,1.38 0.34,3.43 0.34,5.57l-0.11 0z"/>
   <path class="fil0" d="M7081.62 2259.84m187.29 -10.36c1.03,2.4 1.38,4.53 1.38,6.26 0.35,1.37 -0.35,2.4 -1.03,3.43 -1.03,0.67 -2.4,1.02 -4.53,1.37 -2.06,0.35 -4.89,0.35 -8.32,0.35 -3.43,0 -6.61,0 -8.66,-0.35 -2.05,0 -3.43,-0.35 -4.46,-0.68 -1.02,-0.35 -2.05,-1.02 -2.4,-1.7 -0.68,-0.68 -1.03,-1.38 -1.38,-2.41l-18.77 -53.4 -91.2 0 -18 52.71c-0.35,1.02 -0.68,1.7 -1.38,2.4 -0.34,1.03 -1.37,1.38 -2.4,2.05 -1.03,0.35 -2.4,0.68 -4.53,1.03 -2.06,0.35 -4.54,0.35 -7.64,0.35 -3.43,0 -5.91,0 -7.96,-0.35 -2.06,-0.35 -3.86,-1.03 -4.54,-1.7 -1.02,-0.68 -1.37,-2.06 -1.37,-3.43 0.35,-1.38 0.67,-3.43 1.7,-5.91l73.19 -203.57c0.68,-1.38 1.38,-2.41 2.06,-3.09 0.68,-1.02 1.7,-1.37 3.08,-2.05 1.38,-0.35 3.08,-0.68 5.56,-0.68 2.05,-0.35 4.88,-0.35 8.31,-0.35 3.43,0 6.61,0 9,0.35 2.05,0 4.1,0.35 5.56,0.68 1.37,0.68 2.75,1.38 3.43,2.05 0.68,0.68 1.37,1.71 1.7,3.09l73.54 203.57 0.06 -0.02zm-94.37 -179.64l0 0 -37.81 109.27 76.27 0 -38.48 -109.27 0.02 0z"/>
   <path class="fil0" d="M7494.84 2259.84m29.15 -4.53c0,1.03 -0.35,1.7 -0.68,2.4 -0.35,0.68 -1.03,1.38 -2.4,1.71 -1.03,0.35 -2.41,0.68 -4.54,1.02 -1.7,0.35 -4.11,0.35 -6.93,0.35 -2.76,0 -4.89,0 -6.94,-0.35 -1.71,-0.34 -3.43,-0.67 -4.46,-1.02 -1.03,-0.35 -2.05,-1.03 -2.4,-1.71 -0.35,-0.68 -0.68,-1.37 -0.68,-2.4l0 -210.16c0,-1.03 0.35,-1.7 0.68,-2.4 0.68,-0.68 1.37,-1.38 2.83,-1.71 1.02,-0.35 2.4,-0.68 4.45,-1.02 1.71,-0.35 4.21,-0.35 6.61,-0.35 2.83,0 5.23,0 6.94,0.35 2.05,0.34 3.43,0.67 4.53,1.02 1.38,0.35 2.06,1.03 2.41,1.71 0.35,0.68 0.68,1.37 0.68,2.4l0 210.16 -0.1 0z"/>
   <path class="fil0" d="M7771.43 2259.84m238.28 -4.53c0,1.03 -0.35,1.7 -0.68,2.4 -0.35,0.68 -1.38,1.38 -2.4,1.71 -1.03,0.35 -2.76,0.68 -4.54,1.02 -1.7,0.35 -4.2,0.35 -6.94,0.35 -2.75,0 -5.23,0 -6.93,-0.35 -2.06,-0.34 -3.43,-0.67 -4.54,-1.02 -1.03,-0.35 -2.05,-1.03 -2.4,-1.71 -0.35,-0.68 -0.68,-1.37 -0.68,-2.4l0 -190.8 -0.35 0 -76.97 191.83c-0.35,0.67 -1.03,1.37 -1.37,2.05 -0.68,0.35 -1.71,1.03 -2.76,1.38 -1.37,0.34 -2.75,0.67 -4.53,0.67 -1.38,0.35 -3.43,0.35 -5.56,0.35 -2.41,0 -4.54,0 -6.26,-0.35 -1.71,-0.34 -3.08,-0.34 -4.11,-1.02 -1.03,-0.35 -2.05,-0.68 -2.83,-1.38 -0.35,-0.68 -1.03,-1.03 -1.03,-1.7l-73.89 -191.83 -0.34 0 0 190.8c0,1.03 -0.35,1.7 -0.68,2.4 -0.35,0.68 -1.38,1.38 -2.41,1.71 -1.02,0.35 -2.75,0.68 -4.53,1.02 -1.71,0.35 -4.11,0.35 -7.29,0.35 -2.75,0 -4.88,0 -6.93,-0.35 -1.71,-0.34 -3.09,-0.67 -4.46,-1.02 -1.03,-0.35 -1.71,-1.03 -2.06,-1.71 -0.34,-0.68 -0.67,-1.37 -0.67,-2.4l0 -201.5c0,-4.88 1.37,-7.96 3.78,-10.02 2.4,-2.05 5.23,-3.08 8.31,-3.08l18 0c3.43,0 6.94,0.35 9.69,1.03 2.75,0.68 4.88,1.71 6.94,3.08 2.05,1.38 3.85,3.43 5.23,5.56 1.38,2.41 2.75,4.89 3.78,7.97l62.82 158.82 0.68 0 65.23 -158.13c1.03,-3.42 2.4,-6.25 4.2,-8.66 1.38,-2.4 3.09,-4.45 4.89,-5.91 1.7,-1.37 3.85,-2.4 5.91,-2.75 2.05,-0.68 4.88,-1.03 7.63,-1.03l18.68 0c1.71,0 3.43,0.35 4.89,0.68 1.37,0.68 2.75,1.38 3.85,2.4 1.38,1.03 2.06,2.41 2.75,4.21 0.68,1.38 1.03,3.43 1.03,5.91l0 201.5 -0.15 -0.08z"/>
   <path class="fil0" d="M8335.57 2259.84m144.68 -62.82c0,6.94 -0.68,13.2 -2.4,19.11 -2.06,5.56 -4.54,10.71 -7.64,15.6 -3.08,4.53 -6.93,8.66 -11.49,12.17 -4.53,3.43 -9.34,6.6 -14.92,8.66 -5.56,2.4 -11.74,4.2 -18,5.56 -6.61,1.03 -13.9,1.7 -21.86,1.7l-57.59 0c-2.41,0 -4.89,-1.02 -7.29,-2.75 -2.4,-1.7 -3.43,-4.88 -3.43,-8.99l0 -195.58c0,-4.54 1.03,-7.29 3.43,-9.35 2.4,-1.7 4.88,-2.4 7.29,-2.4l49.97 0c13.2,0 23.92,1.03 32.23,3.86 8.31,2.4 15.25,5.91 20.83,10.71 5.91,4.89 10.02,10.37 12.85,17.31 2.75,6.94 4.2,14.92 4.2,23.56 0,5.24 -0.67,10.02 -1.7,14.92 -1.38,4.54 -3.08,9 -5.56,12.85 -2.4,4.21 -5.56,7.64 -9.34,10.72 -3.43,3.43 -7.64,5.91 -12.52,7.96 5.91,1.03 11.49,3.08 16.63,6.26 5.23,2.75 9.69,6.61 13.89,11.49 3.86,4.46 6.94,10.02 8.99,16.28 2.4,6.26 3.43,12.85 3.43,20.48l0 -0.13zm-43.72 -98.13c0,-5.56 -0.67,-10.02 -2.05,-14.58 -1.38,-4.2 -3.86,-7.96 -6.94,-10.71 -3.08,-3.08 -7.28,-5.56 -12.52,-6.94 -5.23,-1.7 -11.82,-2.4 -20.13,-2.4l-30.17 0 0 71.14 33.35 0c7.63,0 13.54,-1.03 18.35,-3.09 4.53,-1.7 8.31,-4.53 11.49,-7.96 2.75,-3.08 5.23,-7.29 6.61,-11.49 1.37,-4.46 2.05,-9.34 2.05,-13.9l-0.04 -0.07zm13.22 99.93c0,-6.61 -1.03,-12.52 -3.08,-17.3 -2.06,-4.89 -5.23,-9 -8.99,-12.52 -4.21,-3.43 -8.99,-5.91 -15.25,-7.97 -5.91,-1.7 -13.55,-2.4 -22.54,-2.4l-35.06 0 0 77.4 42.35 0c6.6,0 12.51,-0.68 17.3,-2.41 5.23,-1.37 9.34,-3.85 13.2,-6.93 3.85,-3.08 6.93,-6.94 8.99,-11.82 2.05,-4.54 3.08,-10.02 3.08,-15.95l0 -0.1z"/>
   <path class="fil0" d="M8713.47 2259.84m29.15 -4.53c0,1.03 -0.35,1.7 -0.68,2.4 -0.35,0.68 -1.03,1.38 -2.41,1.71 -1.02,0.35 -2.4,0.68 -4.53,1.02 -1.71,0.35 -4.11,0.35 -6.94,0.35 -2.75,0 -4.88,0 -6.94,-0.35 -1.7,-0.34 -3.43,-0.67 -4.45,-1.02 -1.03,-0.35 -2.06,-1.03 -2.41,-1.71 -0.34,-0.68 -0.67,-1.37 -0.67,-2.4l0 -210.16c0,-1.03 0.35,-1.7 0.67,-2.4 0.68,-0.68 1.38,-1.38 2.83,-1.71 1.03,-0.35 2.41,-0.68 4.46,-1.02 1.71,-0.35 4.21,-0.35 6.61,-0.35 2.83,0 5.23,0 6.94,0.35 2.05,0.34 3.43,0.67 4.53,1.02 1.38,0.35 2.05,1.03 2.4,1.71 0.35,0.68 0.68,1.37 0.68,2.4l0 210.16 -0.09 0z"/>
   <path class="fil0" d="M8990.06 2259.84m144.68 -62.82c0,6.94 -0.68,13.2 -2.41,19.11 -2.05,5.56 -4.53,10.71 -7.63,15.6 -3.08,4.53 -6.94,8.66 -11.49,12.17 -4.54,3.43 -9.34,6.6 -14.92,8.66 -5.57,2.4 -11.75,4.2 -18.01,5.56 -6.61,1.03 -13.89,1.7 -21.86,1.7l-57.59 0c-2.4,0 -4.88,-1.02 -7.28,-2.75 -2.41,-1.7 -3.43,-4.88 -3.43,-8.99l0 -195.58c0,-4.54 1.02,-7.29 3.43,-9.35 2.4,-1.7 4.88,-2.4 7.28,-2.4l49.98 0c13.19,0 23.91,1.03 32.22,3.86 8.32,2.4 15.26,5.91 20.84,10.71 5.91,4.89 10.01,10.37 12.84,17.31 2.76,6.94 4.21,14.92 4.21,23.56 0,5.24 -0.68,10.02 -1.71,14.92 -1.37,4.54 -3.08,9 -5.56,12.85 -2.4,4.21 -5.56,7.64 -9.34,10.72 -3.43,3.43 -7.63,5.91 -12.52,7.96 5.91,1.03 11.49,3.08 16.63,6.26 5.23,2.75 9.69,6.61 13.89,11.49 3.86,4.46 6.94,10.02 9,16.28 2.4,6.26 3.43,12.85 3.43,20.48l0 -0.13zm-43.72 -98.13c0,-5.56 -0.68,-10.02 -2.06,-14.58 -1.37,-4.2 -3.85,-7.96 -6.93,-10.71 -3.08,-3.08 -7.29,-5.56 -12.52,-6.94 -5.23,-1.7 -11.82,-2.4 -20.14,-2.4l-30.17 0 0 71.14 33.35 0c7.64,0 13.55,-1.03 18.35,-3.09 4.54,-1.7 8.32,-4.53 11.5,-7.96 2.75,-3.08 5.23,-7.29 6.6,-11.49 1.38,-4.46 2.06,-9.34 2.06,-13.9l-0.04 -0.07zm13.21 99.93c0,-6.61 -1.02,-12.52 -3.08,-17.3 -2.05,-4.89 -5.23,-9 -8.99,-12.52 -4.2,-3.43 -8.99,-5.91 -15.25,-7.97 -5.91,-1.7 -13.54,-2.4 -22.54,-2.4l-35.05 0 0 77.4 42.34 0c6.61,0 12.52,-0.68 17.31,-2.41 5.23,-1.37 9.34,-3.85 13.19,-6.93 3.86,-3.08 6.94,-6.94 8.99,-11.82 2.06,-4.54 3.08,-10.02 3.08,-15.95l0 -0.1z"/>
   <path class="fil0" d="M9367.95 2259.84m29.15 -4.53c0,1.03 -0.35,1.7 -0.68,2.4 -0.35,0.68 -1.03,1.38 -2.4,1.71 -1.03,0.35 -2.4,0.68 -4.54,1.02 -1.7,0.35 -4.1,0.35 -6.93,0.35 -2.76,0 -4.89,0 -6.94,-0.35 -1.71,-0.34 -3.43,-0.67 -4.46,-1.02 -1.03,-0.35 -2.05,-1.03 -2.4,-1.71 -0.35,-0.68 -0.68,-1.37 -0.68,-2.4l0 -210.16c0,-1.03 0.35,-1.7 0.68,-2.4 0.68,-0.68 1.37,-1.38 2.83,-1.71 1.03,-0.35 2.4,-0.68 4.46,-1.02 1.7,-0.35 4.2,-0.35 6.6,-0.35 2.83,0 5.24,0 6.94,0.35 2.05,0.34 3.43,0.67 4.54,1.02 1.37,0.35 2.05,1.03 2.4,1.71 0.35,0.68 0.68,1.37 0.68,2.4l0 210.16 -0.1 0z"/>
   <polygon class="fil1" points="368.69,447.68 590.59,503.12 834.45,39.86 "/>
   <polygon class="fil2" points="-3.8,773.8 -3.8,1632.95 590.59,503.12 368.69,447.68 "/>
   <polygon class="fil0" points="1672.6,773.8 -3.8,1632.95 643.4,1632.95 "/>
   <polygon class="fil3" points="-3.8,1632.95 1672.6,773.8 590.59,503.12 "/>
   <polygon class="fil4" points="590.59,503.12 1672.6,773.72 834.45,39.86 "/>
   <polygon class="fil5" points="643.4,1632.95 1672.43,1632.95 1672.6,773.8 "/>
  </g>
 </g>
</svg>
